<svg xmlns="http://www.w3.org/2000/svg" viewBox="0 0 257.78 50.89"><defs><style>.cls-1{fill:#91abc6;}.cls-2{fill:#043d65;}.cls-3{fill:#033c65;}.cls-4{fill:#023b64;}.cls-5{fill:#033c64;}.cls-6{fill:#053d65;}.cls-7{fill:#063e66;}.cls-8{fill:#ed262e;}.cls-9{fill:#164a70;}.cls-10{fill:#14496f;}.cls-11{fill:#1b4f73;}</style></defs><title>Recurso 2</title><g id="Capa_2" data-name="Capa 2"><g id="Capa_1-2" data-name="Capa 1"><path class="cls-1" d="M25.31,17.25c0,3.88,0,7.77,0,11.65,0,1.22-.27,1.72-1.6,1.71q-11.07-.08-22.14,0C.26,30.61,0,30.09,0,28.89.05,21,.06,13.1,0,5.2,0,3.78.51,3.49,1.8,3.5c7.25.05,14.5.07,21.75,0,1.54,0,1.82.54,1.79,1.92C25.26,9.35,25.31,13.3,25.31,17.25Z"/><path class="cls-2" d="M151.71,38.83c-2.39,0-4.65-.05-6.91,0-1,0-1.27-.31-1.29-1.31-.13-5.27-.16-5.27,5.11-5.27,3.3,0,6.61,0,9.91,0,.85,0,1.56,0,1.55,1.14,0,4.19-.49,8.3-3.16,11.76-4,5.22-9.61,6.16-15.68,5.5-9.21-1-14.45-9.41-13.52-17.75a15.81,15.81,0,0,1,17.7-14.14c5.78.57,9.56,2.7,12.44,7.1-2.14,1-4.27,2.05-6.38,3.12-.75.38-1.15.07-1.63-.47A7.56,7.56,0,0,0,141,26.43c-3.3,1.21-4.58,4-4.86,7.31a16.48,16.48,0,0,0,0,3.3c.74,6.38,7.11,9.49,12.57,6.19C150.44,42.21,151.15,41.19,151.71,38.83Z"/><path class="cls-3" d="M196.55,35.11c-.26,9.42-7.56,16-17.45,15.77C170.41,50.66,163.47,43,163.76,34c.26-8.35,7.91-15.44,16.51-15.3A16.24,16.24,0,0,1,196.55,35.11Zm-24.3-.18c0,4.3,2.35,7.7,5.88,8.57a7.83,7.83,0,0,0,9.58-5.68c1.44-4.81-.81-10-5-11.46C177.31,24.42,172.22,28.58,172.25,34.93Z"/><path class="cls-4" d="M216.44,37.87l8.24,12.23c-3.23,0-6.16,0-9.09,0-.82,0-.95-.8-1.26-1.32-1.94-3.26-3.85-6.54-6.18-9.72,0,3.12-.07,6.25,0,9.37,0,1.35-.31,1.84-1.7,1.7-2-.21-4.79.85-5.94-.43-1-1.12-.3-3.82-.3-5.82,0-7.65,0-15.29,0-22.94,0-1.28.35-1.64,1.61-1.59,4.2.15,8.43-.27,12.62.26,5.42.69,8.23,3.41,8.66,8.53C223.44,32,222.38,36,216.44,37.87Zm-8.29-8.13c0,1,0,2.07,0,3.11,0,.37-.08.88.45.92,1.68.13,3.38.25,4.88-.76s1.39-2.39,1.25-3.83c-.24-2.39-2.17-3.57-5.47-3.23-2.26.23-.64,2-1.1,3A2,2,0,0,0,208.16,29.75Z"/><path class="cls-5" d="M126.92,50.11c-2.64,0-5.08,0-7.53,0-.87,0-1-.44-1.22-1.14-.38-1.42-.47-3.41-1.43-4s-3-.25-4.54-.27c-1.88,0-3.76.08-5.64,0-1.16-.08-1.53.4-1.82,1.41-1.17,4.07-1.21,4.06-5.42,4.06s-4.19,0-2.83-3.93c2.92-8.42,5.87-16.83,8.73-25.28a1.87,1.87,0,0,1,2.18-1.55c2.59.1,5.18,0,7.78,0,.72,0,1.21.1,1.47.88C120,30.14,123.45,40,126.92,50.11Zm-15.85-25c-1.26,4.17-2.48,8.29-3.75,12.39-.24.78-.25,1.2.76,1.18q3-.07,6,0c1,0,1-.27.76-1.13C113.56,33.42,112.34,29.29,111.07,25.09Z"/><path class="cls-5" d="M226.25,50.11c2.38-6.88,4.67-13.52,7-20.16,1.06-3.05,2.2-6.08,3.15-9.16a1.72,1.72,0,0,1,2.05-1.43c2.52.08,5.05.06,7.58,0a1.56,1.56,0,0,1,1.84,1.2q4.83,14.22,9.8,28.39c.38,1.08,0,1.22-.87,1.17-.71,0-1.42,0-2.14,0-1.62,0-3.51.46-4.77-.22s-1-2.77-1.51-4.23c-.23-.73-.53-1-1.33-1-3.24,0-6.48.06-9.72,0-1,0-1.14.47-1.39,1.21-.46,1.39-.31,3.37-1.47,4s-2.89.2-4.38.22C228.9,50.12,227.74,50.11,226.25,50.11Zm15.91-25c-1.26,4.15-2.44,8.11-3.66,12.05-.3,1-.4,1.57,1,1.5,1.87-.09,3.75,0,5.63,0,.52,0,1.27.22.93-.86C244.72,33.61,243.46,29.41,242.16,25.13Z"/><path class="cls-6" d="M32.49,34.33c0-4.54,0-9.07,0-13.61,0-1.28.21-1.84,1.66-1.77,4.59.24,9.2-.35,13.77.38a8.45,8.45,0,0,1,7.05,6.15,12.52,12.52,0,0,1-.18,8.57,8,8,0,0,1-6.09,5.16,20.19,20.19,0,0,1-4.44.39c-3.75,0-3.75,0-3.75,3.85,0,1.68,0,3.37,0,5.05,0,.9-.2,1.36-1.17,1.21h-.19c-2.13,0-4.93.74-6.22-.32s-.35-4-.4-6.13C32.44,40.3,32.49,37.31,32.49,34.33Zm8-5.11a8.81,8.81,0,0,1,0,1.54c-.36,2,.64,2.31,2.28,2,.63-.12,1.29-.07,1.92-.21a3,3,0,0,0,2.61-2.48,3.23,3.23,0,0,0-1-3.5,6.33,6.33,0,0,0-5.38-.76c-.9.24-.24,1.85-.39,2.82A3.76,3.76,0,0,0,40.48,29.23Z"/><path class="cls-5" d="M81.31,38.3c0-3.3-.08-6.6,0-9.9,0-1.42-.42-1.86-1.73-1.63a1.54,1.54,0,0,1-.39,0c-1.52-.13-3.9.69-4.4-.3-.95-1.87-.27-4.29-.3-6.48,0-.68.54-.61,1-.61,6.66,0,13.33,0,20,0,.89,0,1.08.34,1.06,1.14,0,1.68-.08,3.37,0,5,.06,1.11-.43,1.25-1.36,1.24-1.73,0-4.14-.6-5,.29-1.15,1.14-.34,3.54-.35,5.39q-.07,8.06,0,16.11c0,1.14-.2,1.63-1.47,1.56a44.66,44.66,0,0,0-5.63,0c-1.29.09-1.47-.43-1.45-1.55C81.35,45.16,81.31,41.73,81.31,38.3Z"/><path class="cls-7" d="M60.7,34.54c0-4.59,0-9.19,0-13.78,0-1.09.29-1.45,1.39-1.4,1.94.09,3.88.07,5.82,0,1,0,1.21.31,1.2,1.23q0,14.17,0,28.35c0,.95-.32,1.23-1.23,1.2-1.94-.06-3.89-.09-5.82,0-1.15.06-1.38-.37-1.37-1.43C60.73,44,60.7,39.26,60.7,34.54Z"/><path class="cls-8" d="M36.78,12.22c-2.39,0-4.78,0-7.17,0-.93,0-1.24-.3-1.21-1.23q.09-3.1,0-6.2c0-.94.3-1.23,1.22-1.22q7.27.05,14.54,0c1,0,1.38.3,1.34,1.33-.07,2-.07,4,0,6,0,1-.37,1.34-1.35,1.32C41.7,12.19,39.24,12.22,36.78,12.22Z"/><path class="cls-9" d="M162.16,8.82c0,1.36,0,2.72,0,4.08,0,.37.08.85-.43.94-.29,0-.85,0-.87-.16-.33-1.64-1-.46-1.51-.19a5.17,5.17,0,0,1-6.5-1.2,5.48,5.48,0,0,1,0-7,5.13,5.13,0,0,1,6.49-1.22c.47.25,1.18,1.53,1.6-.2.08-.32,1.25-.46,1.25.64C162.16,6,162.16,7.39,162.16,8.82ZM160.8,9a3.86,3.86,0,0,0-3.64-4.16A3.94,3.94,0,0,0,153,8.6a4,4,0,0,0,3.7,4.16A3.81,3.81,0,0,0,160.8,9Z"/><path class="cls-10" d="M144.15,8.84a5.34,5.34,0,0,1-10.67,0,5.41,5.41,0,0,1,5.44-5.42A5.35,5.35,0,0,1,144.15,8.84Zm-5.35,3.91a3.88,3.88,0,0,0,3.88-4,4,4,0,0,0-3.82-3.88,3.91,3.91,0,0,0-3.86,4A3.87,3.87,0,0,0,138.8,12.76Z"/><path class="cls-10" d="M65.56,3.43a5.26,5.26,0,0,1,5.27,5.33,5.27,5.27,0,1,1-10.53,0A5.2,5.2,0,0,1,65.56,3.43Zm3.81,5.45a3.83,3.83,0,1,0-7.66-.09,3.83,3.83,0,1,0,7.66.09Z"/><path class="cls-11" d="M73.13,8.66c0-1.36,0-2.72,0-4.08,0-.3-.1-.7.32-.81s.9-.17,1,.26c.28,1,.66.52,1.18.22,3.34-1.89,6.11-.38,6.28,3.45.07,1.61,0,3.23,0,4.85,0,.53.22,1.29-.69,1.31-1.14,0-.69-.89-.71-1.41-.06-1.49,0-3,0-4.46s-.4-3-2.37-3.14a3.16,3.16,0,0,0-3.41,2.78c-.2,1.66-.12,3.35-.17,5,0,.57.1,1.24-.81,1.22s-.6-.7-.61-1.15C73.1,11.38,73.13,10,73.13,8.66Z"/><path class="cls-9" d="M103.78,7.31c0-.91,0-1.81,0-2.72,0-.52.09-.88.73-.86s.78.29.77.85c0,1.55,0,3.11,0,4.66.05,2.3,1.1,3.51,3,3.51s3-1.25,3-3.5c0-1.49,0-3,0-4.46,0-.51-.11-1.06.72-1.05s.84.39.82,1a36.2,36.2,0,0,1-.25,6,4.05,4.05,0,0,1-4.44,3.45,4,4,0,0,1-4.18-3.75,28.6,28.6,0,0,1,0-3.1Z"/><path class="cls-10" d="M120.52,14.16a5.59,5.59,0,0,1-5.34-3.73,5.49,5.49,0,0,1,2.24-6.1,6.15,6.15,0,0,1,6.91.37c.39.34,1.14.71.68,1.36s-1,.2-1.56-.21a4.41,4.41,0,0,0-5.54-.09,3.69,3.69,0,0,0-1.17,4.52,4.26,4.26,0,0,0,6.51,1.64c.55-.38,1.12-1.26,1.72-.32.5.79-.49,1.14-1,1.52A6.13,6.13,0,0,1,120.52,14.16Z"/><path class="cls-10" d="M53.8,12.75a3.81,3.81,0,0,0,3-1.2.81.81,0,0,1,1.32,0c.54.56-.12.79-.37,1.05-1.95,2.07-6,2-8.07,0a5.3,5.3,0,0,1,0-7.48c2.12-2.11,6.15-2.21,8.09-.16.3.31,1,.63.32,1.23-.5.46-.85.24-1.28-.19a4.32,4.32,0,0,0-7.21,2.77A4,4,0,0,0,53.8,12.75Z"/><path class="cls-9" d="M86.63,14.14a4.24,4.24,0,0,1-2.53-1c-.3-.29-.54-.58-.15-1s.52-.57,1-.22a4,4,0,0,0,1,.61,1.71,1.71,0,0,0,2.22-.68c.56-.87.15-1.62-.65-2.14s-1.59-.88-2.31-1.42a2.6,2.6,0,0,1-1-2.94,2.59,2.59,0,0,1,2.21-1.93,3.69,3.69,0,0,1,3,1c.37.29.22.56,0,.81s-.55.55-1,.17A2.23,2.23,0,0,0,87,4.87a1.36,1.36,0,0,0-1.45.74A1.19,1.19,0,0,0,86,7.17c.78.56,1.67,1,2.45,1.56a2.71,2.71,0,0,1,1.16,3.37A3,3,0,0,1,86.63,14.14Z"/><path class="cls-11" d="M128.74,9.44c0-1,0-1.94,0-2.91s.13-1.73-1.2-1.54c-.36.05-.58-.21-.57-.61s.11-.6.38-.58c1.92.14,1.24-1.27,1.4-2.23.09-.55-.46-1.47.56-1.56,1.2-.1.77.92.84,1.54.12,1-.48,2.39,1.44,2.2.36,0,.58.17.61.58s-.26.73-.69.67c-1.41-.22-1.38.65-1.36,1.63,0,1.94,0,3.89,0,5.83,0,.58.28,1.44-.79,1.41s-.59-.83-.61-1.32C128.7,11.52,128.74,10.48,128.74,9.44Z"/><path class="cls-11" d="M93.49,0c.92-.09,1,.39,1,1,.11,1.23-.71,3.05,1.75,2.87.06,0,.2.42.22.66,0,.43-.29.57-.62.51-1.64-.3-1.36.85-1.36,1.78,0,1.94,0,3.87,0,5.81,0,.53.22,1.26-.71,1.28s-.75-.7-.76-1.24c0-2.07,0-4.13,0-6.2,0-.77.17-1.64-1.11-1.44-.38.06-.59-.18-.57-.58s0-.63.31-.62c2,0,1.2-1.48,1.37-2.45C93.1.83,92.79.13,93.49,0Z"/><path class="cls-11" d="M97.79,8.79c0-1.36,0-2.72,0-4.08,0-.6.41-1.31.78-.92,1.14,1.23,1.79-.11,2.65-.27.63-.12,1.47-.27,1.62.53.1.54-.49.89-1.22.91-1.34,0-1.82,1-2.09,2.18a29.24,29.24,0,0,0-.31,5.41c0,.49.34,1.29-.6,1.33s-.79-.81-.8-1.4C97.77,11.25,97.79,10,97.79,8.79Z"/><path class="cls-10" d="M146.78,3.77c.94,1.44,1.77-.24,2.75-.3.53,0,1.18-.1,1.32.49a.8.8,0,0,1-.88,1c-2.06,0-2.38,1.51-2.51,3s0,3.1-.08,4.65c0,.54.18,1.23-.74,1.28s-.77-.66-.78-1.19c0-2.65,0-5.3,0-8C145.85,4.22,145.78,3.65,146.78,3.77Z"/></g></g></svg>